<svg width="200" height="200" viewBox="0 0 285 285" fill="none"
    xmlns="http://www.w3.org/2000/svg">
    <path d="M65.8829 242.769L72.5626 242.79L72.8565 129.562L66.1768 129.546L65.8829 242.769Z" fill="#49BDFF"/>
    <path d="M213.24 129.562L212.996 242.789L219.676 242.808L219.919 129.575L213.24 129.562Z" fill="#49BDFF"/>
    <path d="M172.481 6.80771L161.565 15.7975C161.377 15.9531 161.225 16.1477 161.119 16.3677C161.013 16.5878 160.957 16.8281 160.953 17.0722V17.1111C160.955 17.3547 161.009 17.595 161.112 17.8159C161.214 18.0368 161.363 18.233 161.548 18.3914L171.841 27.1028L143.174 27.1808H143.146V6.79102H143.174L172.481 6.80771Z" fill="#FB6771"/>
    <path d="M143.174 6.79102H143.146V27.1808H143.174L152.609 27.1507V6.79714L143.174 6.79102Z" fill="#FF97A1"/>
    <path d="M143.146 1.88699C142.26 1.88699 141.41 2.23887 140.784 2.86521C140.158 3.49155 139.806 4.34106 139.806 5.22684V43.6773H146.486V5.22684C146.486 4.34106 146.134 3.49155 145.507 2.86521C144.881 2.23887 144.031 1.88699 143.146 1.88699Z" fill="#55D8D8"/>
    <path d="M154.395 53.1982H130.699C131.684 86.2014 92.9423 106.741 89.2462 108.628L89.48 130.811H195.52L196.862 108.69L196.867 108.679C196.867 108.679 153.36 87.8546 154.395 53.1982Z" fill="#F7D546"/>
    <path d="M153.271 204.014V219.433H153.238C151.034 221.834 147.985 223.287 144.732 223.486C139.155 223.753 134.835 219.996 134.323 219.433V204.014C134.835 204.577 139.155 208.334 144.732 208.067C147.985 207.868 151.034 206.416 153.238 204.014H153.271Z" fill="#DE3C44"/>
    <path d="M153.271 173.744V189.163H153.238C151.035 191.567 147.986 193.022 144.732 193.221C139.155 193.483 134.835 189.725 134.323 189.163V173.744C134.835 174.306 139.155 178.064 144.732 177.802C147.986 177.603 151.035 176.148 153.238 173.744H153.271Z" fill="#DE3C44"/>
    <path d="M153.271 143.48V158.899H153.238C151.034 161.3 147.985 162.753 144.732 162.951C139.155 163.218 134.835 159.461 134.323 158.899V143.48C134.835 144.042 139.155 147.799 144.732 147.532C147.985 147.334 151.034 145.881 153.238 143.48H153.271Z" fill="#DE3C44"/>
    <path d="M153.271 219.433V241.031H134.323V219.433C134.835 219.995 139.155 223.753 144.732 223.486C147.985 223.287 151.034 221.834 153.238 219.433H153.271Z" fill="#FB6771"/>
    <path d="M153.271 189.163V204.014H153.238C151.034 206.416 147.985 207.868 144.732 208.067C139.155 208.334 134.835 204.577 134.323 204.014V189.163C134.835 189.725 139.155 193.483 144.732 193.221C147.986 193.022 151.035 191.567 153.238 189.163H153.271Z" fill="#FB6771"/>
    <path d="M153.271 158.899V173.744H153.238C151.035 176.148 147.986 177.603 144.732 177.802C139.155 178.064 134.835 174.306 134.323 173.744V158.899C134.835 159.461 139.155 163.218 144.732 162.951C147.985 162.753 151.034 161.3 153.238 158.899H153.271Z" fill="#FB6771"/>
    <path d="M134.323 131.217V143.48C134.835 144.042 139.155 147.799 144.732 147.532C147.985 147.334 151.034 145.881 153.238 143.48H153.271V131.217H134.323Z" fill="#FB6771"/>
    <path d="M207.655 125.517V131.217H175.693L175.704 125.517C175.704 115.692 182.856 107.732 191.679 107.732C193.451 107.73 195.208 108.055 196.862 108.69C199.208 109.601 201.303 111.059 202.973 112.942C204.706 114.886 206.001 117.179 206.77 119.667C207.36 121.56 207.658 123.533 207.655 125.517Z" fill="#88CED8"/>
    <path d="M142.706 125.517V131.217H110.744L110.749 125.517C110.749 115.692 117.902 107.732 126.73 107.732C128.874 107.752 130.99 108.227 132.937 109.125C134.884 110.023 136.618 111.324 138.025 112.942C141.082 116.413 142.749 120.892 142.706 125.517Z" fill="#88CED8"/>
    <path d="M79.0263 119.667C79.0263 119.667 72.9199 95.4249 46.396 102.6C46.3661 102.608 46.339 102.624 46.3179 102.646C46.2968 102.669 46.2824 102.697 46.2766 102.727C46.2708 102.757 46.2737 102.789 46.285 102.818C46.2962 102.846 46.3154 102.871 46.3403 102.889C55.4025 109.508 60.9076 130.56 61.0746 131.217H78.2637L78.2748 125.517C78.2708 123.547 78.5655 121.587 79.1487 119.706L79.0263 119.667Z" fill="#6ADDC7"/>
    <path d="M239.406 102.6C212.882 95.4249 206.775 119.667 206.775 119.667H206.77C207.36 121.561 207.658 123.533 207.655 125.517V131.217H225.005C225.005 131.217 230.26 109.614 239.461 102.889C239.486 102.871 239.505 102.846 239.517 102.818C239.528 102.789 239.531 102.757 239.525 102.727C239.519 102.697 239.505 102.669 239.484 102.646C239.463 102.624 239.435 102.608 239.406 102.6Z" fill="#6ADDC7"/>
    <path d="M175.18 125.517V131.217H143.218L143.229 125.517C143.229 115.692 150.382 107.732 159.205 107.732C161.349 107.752 163.464 108.227 165.411 109.125C167.358 110.023 169.092 111.324 170.499 112.942C173.556 116.413 175.224 120.892 175.18 125.517Z" fill="#A0EAEA"/>
    <path d="M122.979 225.267L119.422 218.793C117.914 216.051 115.838 213.664 113.332 211.791C107.732 207.627 103.88 200.947 103.93 193.856L104.582 178.131C104.576 177.791 104.673 177.458 104.861 177.175C105.048 176.892 105.317 176.673 105.632 176.546C105.947 176.42 106.293 176.391 106.624 176.466C106.956 176.54 107.256 176.713 107.487 176.962L107.949 177.468C108.866 178.477 110.14 179.09 111.501 179.178C112.861 179.265 114.203 178.819 115.241 177.936C116.142 177.165 116.774 176.127 117.043 174.972C117.312 173.818 117.206 172.607 116.739 171.518L110.137 156.015C109.798 155.211 109.213 154.535 108.466 154.084C107.719 153.633 106.848 153.43 105.979 153.505C102.331 153.817 98.8125 155.009 95.7255 156.978C85.8674 163.335 84.8209 175.169 84.7151 176.605L81.9096 180.585L81.2417 181.917C80.6009 183.191 79.6082 184.254 78.3813 184.98C77.1544 185.707 75.7449 186.066 74.3199 186.016L56.1372 185.372C54.9363 185.512 53.7655 185.842 52.6693 186.352C51.3543 186.968 50.1666 187.825 49.1681 188.879C49.0233 189.03 48.8842 189.18 48.7506 189.341C47.1306 191.248 46.1459 193.612 45.934 196.104L45.7892 197.78L45.4497 201.788C45.2692 203.93 44.5762 205.998 43.4291 207.816C42.2913 209.62 40.7301 211.118 38.8813 212.18C36.4998 213.555 34.6094 215.642 33.4764 218.147L29.6021 226.675C29.3273 227.278 29.1849 227.933 29.1847 228.596C29.1791 229.505 29.4453 230.396 29.949 231.154C30.4528 231.911 31.1713 232.501 32.0124 232.848C32.9967 233.245 34.0912 233.271 35.0932 232.922C36.0952 232.573 36.9368 231.872 37.4619 230.95C41.1472 224.623 46.5182 219.445 52.9755 215.993L56.4433 214.151C60.4508 212.017 64.804 210.61 69.3017 209.993C71.0189 209.754 72.7505 209.635 74.4841 209.636H76.7552C80.5547 209.636 84.3376 210.14 88.0049 211.134C91.6852 212.129 95.2187 213.603 98.5142 215.52C104.159 218.804 110.026 224.9 114.161 230.928C114.636 231.632 115.276 232.21 116.025 232.611C116.774 233.011 117.609 233.223 118.459 233.227C119.505 233.226 120.526 232.902 121.381 232.297C122.464 231.526 123.225 230.383 123.519 229.086C123.814 227.79 123.621 226.431 122.979 225.267Z" fill="#6D7486"/>
    <path d="M159.951 52.2296C158.757 48.652 156.468 45.5405 153.408 43.3357C150.348 41.1309 146.672 39.9445 142.901 39.9445C139.129 39.9445 135.453 41.1309 132.393 43.3357C129.333 45.5405 127.045 48.652 125.851 52.2296L125.528 53.1982H160.274L159.951 52.2296Z" fill="#B0B5CA"/>
    <path d="M57.5288 259.005V279.651V279.773H100.012V279.651V259.005H57.5288Z" fill="#A0EAEA"/>
    <path d="M184.988 279.651V279.773H142.5V279.651V259.005H184.988V279.651Z" fill="#A0EAEA"/>
    <path d="M249.664 269.904V279.773H227.471V259.005H238.765C241.656 259.006 244.428 260.154 246.471 262.198C248.515 264.242 249.664 267.014 249.664 269.904Z" fill="#A0EAEA"/>
    <path d="M184.988 259.005V279.651V279.773H227.471V279.651V259.005H184.988Z" fill="#6ADDC7"/>
    <path d="M142.5 279.651V279.773H100.012V279.651V259.005H142.5V279.651Z" fill="#6ADDC7"/>
    <path d="M57.5288 279.651V279.773H37.6011V269.904C37.6009 268.473 37.8827 267.055 38.4304 265.733C38.9781 264.41 39.7809 263.209 40.793 262.197C41.8051 261.185 43.0067 260.382 44.329 259.834C45.6514 259.287 47.0688 259.005 48.5001 259.005H57.5288V279.651Z" fill="#6ADDC7"/>
    <path d="M61.3362 241.031H223.664V259.005H61.3362V241.031Z" fill="#F7D546"/>
    <path d="M48.7506 189.341C47.1306 191.248 46.1459 193.612 45.934 196.104L45.7892 197.78C45.3328 198.053 23.1729 211.156 13.5931 197.307C13.1256 196.622 13.3315 196.099 14.0106 196.561C15.9255 197.858 19.8164 200.302 26.9024 192.275C38.4304 179.199 49.0845 188.807 49.0845 188.807L49.168 188.879C49.0233 189.03 48.8841 189.18 48.7506 189.341Z" fill="#EFC597"/>
    <path d="M270.674 225.267L267.117 218.793C265.61 216.051 263.533 213.664 261.027 211.791C255.427 207.627 251.575 200.947 251.625 193.856L252.277 178.131C252.271 177.791 252.368 177.458 252.556 177.175C252.743 176.892 253.012 176.673 253.327 176.546C253.642 176.42 253.988 176.391 254.319 176.466C254.651 176.54 254.952 176.713 255.182 176.962L255.644 177.468C256.561 178.477 257.835 179.09 259.196 179.178C260.557 179.265 261.898 178.819 262.936 177.936C263.838 177.165 264.469 176.127 264.738 174.972C265.008 173.818 264.901 172.607 264.434 171.518L257.832 156.015C257.493 155.211 256.908 154.535 256.161 154.084C255.414 153.633 254.543 153.43 253.674 153.505C250.026 153.817 246.508 155.009 243.421 156.978C233.562 163.335 232.516 175.169 232.41 176.605L229.605 180.585L228.937 181.917C228.296 183.191 227.304 184.254 226.077 184.98C224.85 185.707 223.44 186.066 222.016 186.016L203.834 185.372C202.633 185.512 201.462 185.842 200.366 186.352C199.051 186.968 197.863 187.825 196.865 188.879C196.72 189.03 196.581 189.18 196.447 189.341C194.827 191.248 193.843 193.612 193.631 196.104L193.486 197.78L193.146 201.788C192.966 203.93 192.273 205.998 191.126 207.816C189.988 209.62 188.427 211.118 186.578 212.18C184.197 213.555 182.306 215.642 181.173 218.147L177.299 226.675C177.024 227.278 176.882 227.933 176.881 228.596C176.876 229.505 177.142 230.396 177.646 231.154C178.15 231.911 178.868 232.501 179.709 232.848C180.693 233.245 181.788 233.271 182.79 232.922C183.792 232.573 184.634 231.872 185.159 230.95C188.844 224.623 194.215 219.445 200.672 215.993L204.14 214.151C208.148 212.017 212.501 210.61 216.999 209.993C218.716 209.754 220.447 209.635 222.181 209.636H224.452C228.252 209.636 232.034 210.14 235.702 211.134C239.382 212.129 242.915 213.603 246.211 215.52C251.855 218.804 257.722 224.9 261.858 230.928C262.333 231.632 262.973 232.21 263.722 232.611C264.471 233.011 265.306 233.223 266.155 233.227C267.202 233.226 268.223 232.902 269.078 232.297C270.16 231.525 270.921 230.382 271.215 229.086C271.509 227.79 271.317 226.43 270.674 225.267Z" fill="#6D7486"/>
    <path d="M196.446 189.341C194.826 191.248 193.841 193.612 193.629 196.104L193.484 197.78C193.028 198.053 170.868 211.156 161.288 197.307C160.821 196.622 161.027 196.099 161.706 196.561C163.621 197.858 167.512 200.302 174.598 192.275C186.126 179.199 196.78 188.807 196.78 188.807L196.863 188.879C196.717 189.03 196.579 189.18 196.446 189.341Z" fill="#EFC597"/>
    <path d="M106.179 130.811L105.945 108.628C109.642 106.741 148.384 86.2014 147.398 53.1982H130.699C131.685 86.2014 92.9423 106.741 89.2462 108.628L89.48 130.811H106.179Z" fill="#FFED9F"/>
    <path d="M61.3362 241.031H78.0355V259.005H61.3362V241.031Z" fill="#FFED9F"/>
    <path d="M89.2295 108.634C89.2317 108.632 89.2343 108.63 89.2372 108.629C89.2401 108.628 89.2432 108.628 89.2462 108.628C90.8475 108.034 92.5423 107.73 94.2504 107.732C96.3952 107.752 98.5115 108.227 100.459 109.125C102.407 110.023 104.142 111.324 105.55 112.942C108.608 116.413 110.275 120.892 110.232 125.517L110.226 131.217H78.2637L78.2748 125.517C78.2708 123.547 78.5654 121.587 79.1487 119.706C80.7686 114.484 84.5092 110.365 89.2295 108.634Z" fill="#A0EAEA"/>
    <path d="M89.5896 181.917L90.2576 180.585L93.0631 176.605C93.1688 175.169 94.2153 163.335 104.073 156.978C105.644 155.969 107.336 155.164 109.109 154.581C108.691 154.194 108.196 153.898 107.657 153.712C107.117 153.527 106.545 153.456 105.977 153.505C102.329 153.817 98.8108 155.009 95.7238 156.978C85.8657 163.335 84.8192 175.169 84.7134 176.605L81.908 180.585L81.24 181.917C80.759 182.873 80.0778 183.714 79.2428 184.383C78.4077 185.052 77.4383 185.533 76.4006 185.794L82.6678 186.017C84.0929 186.067 85.5026 185.708 86.7295 184.981C87.9564 184.254 88.949 183.191 89.5896 181.917Z" fill="#A5ADC4"/>
    <path d="M37.9517 226.675L41.826 218.147C42.959 215.642 44.8494 213.555 47.2309 212.18C49.0797 211.118 50.6409 209.62 51.7787 207.816C52.9258 205.998 53.6188 203.93 53.7993 201.788L54.1389 197.78L54.2836 196.104C54.4956 193.612 55.4802 191.248 57.1002 189.341C57.2338 189.18 57.3729 189.03 57.5177 188.879C58.5162 187.825 59.7039 186.968 61.0189 186.352C61.7006 186.039 62.4118 185.794 63.142 185.621L56.1372 185.372C54.9363 185.512 53.7655 185.842 52.6693 186.352C51.3543 186.968 50.1666 187.825 49.1681 188.879C49.0233 189.03 48.8842 189.18 48.7506 189.341C47.1306 191.248 46.1459 193.612 45.934 196.104L45.7892 197.78L45.4497 201.788C45.2692 203.93 44.5762 205.998 43.4291 207.816C42.2913 209.62 40.7301 211.118 38.8813 212.18C36.4998 213.555 34.6094 215.642 33.4764 218.147L29.6021 226.675C29.3273 227.278 29.1849 227.933 29.1847 228.596C29.1791 229.505 29.4453 230.396 29.949 231.154C30.4528 231.911 31.1713 232.501 32.0124 232.848C32.9967 233.245 34.0912 233.271 35.0932 232.922C36.0952 232.573 36.9368 231.872 37.4619 230.95C37.5927 230.728 37.7302 230.509 37.8649 230.288C37.6326 229.712 37.5205 229.094 37.5355 228.473C37.5504 227.852 37.6921 227.24 37.9517 226.675Z" fill="#A5ADC4"/>
    <path d="M185.647 226.675L189.521 218.147C190.654 215.642 192.545 213.555 194.926 212.18C196.775 211.118 198.336 209.62 199.474 207.816C200.621 205.998 201.314 203.93 201.494 201.788L201.834 197.78L201.979 196.104C202.191 193.612 203.175 191.248 204.795 189.341C204.929 189.18 205.068 189.03 205.213 188.879C206.211 187.825 207.399 186.968 208.714 186.352C209.396 186.039 210.107 185.794 210.837 185.621L203.832 185.372C202.631 185.512 201.461 185.842 200.364 186.352C199.049 186.968 197.862 187.825 196.863 188.879C196.718 189.03 196.579 189.18 196.446 189.341C194.826 191.248 193.841 193.612 193.629 196.104L193.484 197.78L193.145 201.788C192.964 203.93 192.271 205.998 191.124 207.816C189.986 209.62 188.425 211.118 186.576 212.18C184.195 213.555 182.305 215.642 181.171 218.147L177.297 226.675C177.022 227.278 176.88 227.933 176.88 228.596C176.874 229.505 177.14 230.396 177.644 231.154C178.148 231.911 178.866 232.501 179.708 232.848C180.692 233.245 181.786 233.271 182.788 232.922C183.79 232.573 184.632 231.872 185.157 230.95C185.288 230.728 185.425 230.509 185.56 230.288C185.328 229.712 185.216 229.094 185.231 228.473C185.246 227.852 185.387 227.24 185.647 226.675Z" fill="#A5ADC4"/>
    <path d="M237.285 181.917L237.953 180.585L240.758 176.605C240.864 175.169 241.91 163.335 251.769 156.978C253.339 155.969 255.031 155.164 256.804 154.581C256.386 154.194 255.891 153.898 255.352 153.712C254.813 153.527 254.24 153.456 253.672 153.505C250.024 153.817 246.506 155.009 243.419 156.978C233.561 163.335 232.514 175.169 232.409 176.605L229.603 180.585L228.935 181.917C228.454 182.873 227.773 183.714 226.938 184.383C226.103 185.052 225.134 185.533 224.096 185.794L230.363 186.017C231.789 186.067 233.198 185.708 234.425 184.981C235.652 184.254 236.644 183.191 237.285 181.917Z" fill="#A5ADC4"/>
    <path d="M80.8576 182.077C80.1694 183.055 79.2568 183.854 78.1964 184.407C77.1359 184.96 75.9584 185.251 74.7624 185.256L57.4453 185.295C57.0081 185.295 56.5714 185.321 56.1372 185.372L56.0815 197.056C56.0766 197.978 56.4357 198.865 57.0809 199.524C57.7261 200.183 58.6052 200.56 59.5271 200.574L78.3249 200.808C78.7879 200.815 79.2477 200.729 79.6775 200.557C80.1073 200.385 80.4987 200.129 80.829 199.804C81.1593 199.48 81.4219 199.093 81.6017 198.666C81.7814 198.239 81.8748 197.781 81.8763 197.318L81.9097 180.585L80.8576 182.077Z" fill="#FFF27D"/>
    <path d="M228.553 182.077C227.864 183.055 226.952 183.854 225.891 184.407C224.831 184.96 223.653 185.251 222.458 185.256L205.14 185.295C204.703 185.295 204.266 185.321 203.832 185.372L203.777 197.056C203.772 197.978 204.131 198.865 204.776 199.524C205.421 200.183 206.3 200.56 207.222 200.574L226.02 200.808C226.483 200.815 226.943 200.729 227.373 200.557C227.802 200.385 228.194 200.129 228.524 199.804C228.854 199.48 229.117 199.093 229.297 198.666C229.477 198.239 229.57 197.781 229.571 197.318L229.605 180.585L228.553 182.077Z" fill="#FFF27D"/>
    <path d="M64.9878 197.056L65.0434 185.372H56.1372L56.0815 197.056C56.0766 197.978 56.4357 198.865 57.0809 199.524C57.7261 200.183 58.6052 200.56 59.5271 200.574H68.4334C67.5114 200.56 66.6323 200.183 65.9872 199.524C65.342 198.865 64.9828 197.978 64.9878 197.056Z" fill="#E5D563"/>
    <path d="M212.683 197.056L212.739 185.372H203.832L203.777 197.056C203.772 197.978 204.131 198.865 204.776 199.524C205.421 200.183 206.3 200.56 207.222 200.574H216.129C215.207 200.56 214.327 200.183 213.682 199.524C213.037 198.865 212.678 197.978 212.683 197.056Z" fill="#E5D563"/>
    <path d="M128.781 100.015C128.12 100.015 127.474 99.819 126.924 99.4516C126.375 99.0842 125.947 98.562 125.694 97.9511C125.442 97.3402 125.376 96.6681 125.506 96.02C125.635 95.3718 125.954 94.7767 126.423 94.31C127.419 93.2988 128.295 92.1754 129.033 90.9623C129.499 90.209 130.245 89.6715 131.107 89.4683C131.969 89.2651 132.877 89.4126 133.63 89.8785C134.383 90.3445 134.921 91.0906 135.124 91.9527C135.327 92.8149 135.18 93.7225 134.714 94.4758C133.703 96.1305 132.504 97.6623 131.14 99.0403C130.83 99.3498 130.462 99.5952 130.057 99.7625C129.653 99.9297 129.219 100.016 128.781 100.015Z" fill="#EDB740"/>
    <path d="M135.105 88.9874C134.575 88.9868 134.053 88.8604 133.582 88.6184C133.111 88.3765 132.704 88.026 132.394 87.5959C132.085 87.1658 131.883 86.6683 131.803 86.1445C131.724 85.6207 131.771 85.0855 131.939 84.5832C134.742 76.2392 134.774 67.2995 134.774 67.2099C134.774 66.3241 135.126 65.4746 135.752 64.8483C136.378 64.2219 137.228 63.8701 138.114 63.8701C138.999 63.8701 139.849 64.2219 140.475 64.8483C141.102 65.4746 141.453 66.3241 141.453 67.2099C141.453 67.6196 141.417 77.3408 138.271 86.7096C138.049 87.3731 137.623 87.95 137.055 88.3587C136.487 88.7674 135.805 88.9873 135.105 88.9874Z" fill="#EDB740"/>
    <path d="M156.504 100.015C156.067 100.015 155.633 99.9296 155.228 99.7624C154.824 99.5951 154.456 99.3498 154.146 99.0403C148.315 93.2262 145.804 83.9342 144.725 77.1643C144.656 76.7312 144.673 76.2887 144.775 75.8621C144.877 75.4355 145.062 75.0331 145.319 74.678C145.839 73.9609 146.623 73.4796 147.497 73.3402C148.372 73.2008 149.267 73.4145 149.984 73.9345C150.701 74.4545 151.182 75.238 151.322 76.1128C152.245 81.9058 154.302 89.765 158.862 94.3116C159.33 94.7783 159.65 95.3734 159.779 96.0215C159.909 96.6696 159.843 97.3417 159.591 97.9525C159.338 98.5634 158.91 99.0856 158.361 99.453C157.812 99.8205 157.165 100.017 156.504 100.017V100.015Z" fill="#EDB740"/>
    <path d="M147.208 71.9875C146.347 71.9869 145.52 71.6539 144.899 71.0581C144.278 70.4623 143.91 69.6496 143.874 68.7896C143.831 67.7838 143.832 67.2099 143.832 67.2099C143.832 66.3241 144.184 65.4746 144.81 64.8483C145.437 64.2219 146.286 63.8701 147.172 63.8701C148.058 63.8701 148.907 64.2219 149.534 64.8483C150.16 65.4746 150.512 66.3241 150.512 67.2099C150.512 67.2611 150.515 67.7259 150.548 68.5063C150.566 68.9445 150.499 69.3822 150.348 69.7941C150.198 70.2061 149.967 70.5844 149.671 70.9074C149.374 71.2304 149.016 71.4918 148.619 71.6767C148.221 71.8615 147.79 71.9662 147.352 71.9848C147.304 71.9864 147.256 71.9875 147.208 71.9875Z" fill="#EDB740"/>
</svg>
