<svg width="415" height="504" viewBox="0 0 415 504" fill="none"
    xmlns="http://www.w3.org/2000/svg">
    <path d="M0.102295 -1V381.053C0.102295 381.053 32.3374 449.788 115.214 441.811C198.091 433.835 215.28 390.876 315.345 470.049C315.345 470.049 350.646 503.185 415.102 501.967V-1H0.102295Z" fill="#FAF8F5"/>
    <path d="M402.251 504C349.458 504 318.174 479.662 317.84 479.381C255.287 430.238 216.941 439.61 163.88 452.6C149.807 456.045 135.241 459.609 118.631 462.6C37.4516 477.232 -2.49715 434.67 -2.89771 434.23L-1.90967 433.335C-1.52246 433.762 37.999 475.777 118.377 461.291C134.96 458.301 149.487 454.75 163.546 451.305C216.981 438.235 255.581 428.796 318.655 478.34C319.042 478.647 357.001 508.152 419.955 501.757L420.089 503.079C413.907 503.72 407.952 504 402.251 504Z" fill="#F9F0E3"/>
</svg>
